<svg xmlns="http://www.w3.org/2000/svg" viewBox="0 0 64 80" x="0px" y="0px">
<g>
<path d="M54,58H50V56h4V49.22l-18,3.6V56h8v2H36v2H54Zm-6,0H46V56h2Z" fill="#f535aa"/>
<path d="M45,31a5,5,0,1,0,5,5A5.006,5.006,0,0,0,45,31Zm-3,2h2v2H42Zm4,6H42V37h4Zm2-4H46V33h2Z" fill="#f535aa"/>
<rect x="39" y="14" width="12" height="2" fill="#f535aa"/>
<polygon points="36 24.78 54 21.18 54 18 36 18 36 24.78" fill="#f535aa"/>
<path d="M54,23.22l-18,3.6V50.78l18-3.6ZM38,48.247V43h2v2.753l7.783-1.729.434,1.952ZM45,43a7,7,0,1,1,7-7A7.008,7.008,0,0,1,45,43Zm7-13H50V28H48V26h4Z" fill="#f535aa"/>
<polygon points="46.153 4 43.847 4 43.181 8 46.819 8 46.153 4" fill="#f535aa"/>
<path d="M30.654,8.062a5.4,5.4,0,0,0-3.038,2.97,3.494,3.494,0,0,1-1.962,2.03,5.84,5.84,0,0,1-3.447-.04,7.679,7.679,0,0,0-4.553.04l.692,1.876a5.84,5.84,0,0,1,3.447.04,11.584,11.584,0,0,0,2.445.333,6.007,6.007,0,0,0,2.108-.373,5.4,5.4,0,0,0,3.038-2.97,3.494,3.494,0,0,1,1.962-2.03,4.2,4.2,0,0,1,2.9.029,6.1,6.1,0,0,0,4.1-.029l-.692-1.876a4.189,4.189,0,0,1-2.9-.029A6.083,6.083,0,0,0,30.654,8.062Z" fill="#f535aa"/>
<path d="M17.586,5.911a9.448,9.448,0,0,0,4.018,1.1c.153,0,.309,0,.468-.016a5.317,5.317,0,0,0,3.62-1.776A3.346,3.346,0,0,1,28.072,4a6.93,6.93,0,0,1,3.514.912A8.935,8.935,0,0,0,36.072,6l-.144-2a7.012,7.012,0,0,1-3.514-.912A8.884,8.884,0,0,0,27.928,2a5.317,5.317,0,0,0-3.62,1.776A3.346,3.346,0,0,1,21.928,5a6.906,6.906,0,0,1-3.514-.913A8.922,8.922,0,0,0,13.928,3l.144,2A6.945,6.945,0,0,1,17.586,5.911Z" fill="#f535aa"/>
<rect x="21" y="9" width="2" height="2"/><rect x="31" y="13" width="2" height="2" fill="#f535aa"/>
<rect x="13" y="10" width="2" height="2"/><rect x="9" y="4" width="2" height="2" fill="#f535aa"/>
<rect x="44" y="10" width="2" height="2" fill="#f535aa"/>
</g></svg>