<?xml version="1.0" encoding="iso-8859-1"?>
<!-- Uploaded to: SVG Repo, www.svgrepo.com, Generator: SVG Repo Mixer Tools -->
<svg fill="#000000" height="800px" width="800px" version="1.1" id="Layer_1" xmlns="http://www.w3.org/2000/svg" xmlns:xlink="http://www.w3.org/1999/xlink" 
	 viewBox="0 0 512 512" xml:space="preserve">
<g>
	<g>
		<g>
			<path d="M353.65,78.875c-4.657,0-8.43,3.773-8.43,8.43c0,4.657,3.773,8.431,8.43,8.431c24.894,0,45.146,20.252,45.146,45.146
				c0,4.657,3.775,8.43,8.43,8.43c4.657,0,8.43-3.773,8.43-8.43C415.657,106.691,387.841,78.875,353.65,78.875z"/>
			<path d="M494.057,95.757c-2.935-3.614-8.243-4.166-11.86-1.23c-15.349,12.467-27.377-0.845-29.089-2.91l-15.386-20.453
				c-0.063-0.083-0.127-0.168-0.193-0.248c-10.61-13.057-22.666-15.011-30.92-14.349c-11.378,0.913-19.697,7.027-21.977,8.878
				c-3.613,2.936-4.161,8.246-1.225,11.86c2.936,3.614,8.246,4.162,11.86,1.225c2.606-2.119,7.493-4.739,12.691-5.156
				c6.178-0.498,11.542,2.14,16.39,8.058l15.393,20.464c0.063,0.083,0.127,0.166,0.194,0.25
				c9.467,11.648,20.087,14.457,28.125,14.456c0.97,0,1.904-0.04,2.792-0.112c11.374-0.913,19.694-7.022,21.974-8.873
				C496.441,104.681,496.992,99.371,494.057,95.757z"/>
			<path d="M232.381,42.358h44.237c23.547,0,32.011-8.501,38.811-15.335c5.874-5.9,10.117-10.163,26.021-10.163h16.642
				c4.657,0,8.43-3.773,8.43-8.43c0-4.657-3.773-8.431-8.43-8.431h-16.642c-22.911,0-31.26,8.389-37.969,15.129
				c-5.766,5.792-10.321,10.368-26.861,10.368h-44.236c-4.657,0-8.43,3.773-8.43,8.431
				C223.953,38.585,227.725,42.358,232.381,42.358z"/>
			<path d="M353.323,144.443c-6.914,0-12.539-5.625-12.539-12.539c0-46.314-37.679-83.992-83.993-83.992h-43.229
				c-4.657,0-8.431,3.773-8.431,8.43c0,4.657,3.773,8.43,8.431,8.43h43.229c37.017,0,67.132,30.115,67.132,67.132
				c0,16.211,13.189,29.4,29.4,29.4c4.657,0,8.431-3.773,8.431-8.431C361.753,148.216,357.98,144.443,353.323,144.443z"/>
			<path d="M326.063,44.969c-3.294-3.291-8.631-3.291-11.924,0c-3.292,3.294-3.292,8.631,0,11.924
				c5.456,5.455,15.711,11.83,27.549,11.83c8.271-0.001,17.315-3.115,26.032-11.83c0.073-0.075,0.147-0.151,0.218-0.227
				l17.591-18.958c14.412-14.284,28.112-1.414,29.628,0.106c3.293,3.291,8.631,3.291,11.923,0c3.292-3.294,3.292-8.631,0-11.923
				c-9.268-9.265-32.389-21.19-53.581,0c-0.073,0.074-0.147,0.151-0.218,0.227l-17.589,18.957
				C341.278,59.36,327.581,46.488,326.063,44.969z"/>
			<path d="M227.731,200.436H72.947c-4.657,0-8.43,3.773-8.43,8.43v235.136c0,4.657,3.773,8.43,8.43,8.43H227.73
				c4.657,0,8.43-3.773,8.43-8.43V208.866C236.161,204.209,232.387,200.436,227.731,200.436z M81.377,435.57V217.297h137.922V435.57
				H81.377z"/>
			<path d="M192.263,285.878c-4.076-2.256-9.203-0.772-11.455,3.3c-2.252,4.076-0.775,9.204,3.3,11.456
				c7.496,4.142,10.051,11.073,10.878,16.157c1.297,8.003-0.986,16.309-3.845,19.414c-5.056,5.489-10.246,8.979-13.035,10.854
				c-0.399,0.268-0.747,0.502-1.04,0.704c-10.245,7.064-15.801,17.713-15.645,29.983c0.16,12.519,6.397,24.609,15.893,30.807
				c1.422,0.927,3.019,1.371,4.6,1.371c2.752,0,5.452-1.347,7.068-3.824c2.545-3.899,1.446-9.122-2.454-11.668
				c-4.768-3.111-8.161-10.062-8.247-16.9c-0.058-4.578,1.343-11.053,8.359-15.889c0.246-0.17,0.54-0.368,0.876-0.592
				c3.124-2.102,9.625-6.475,16.026-13.421c6.879-7.469,10.13-20.946,8.088-33.536C209.617,301.688,202.74,291.668,192.263,285.878z
				"/>
			<path d="M284.62,163.237c0-12.333-10.035-22.367-22.367-22.367h-6.005c-12.63-27.318-34.84-48.095-61.717-59.03v-59.81
				c0-4.657-3.773-8.43-8.43-8.43h-71.526c-4.657,0-8.43,3.775-8.43,8.43v59.81c-26.875,10.935-49.085,31.712-61.714,59.03h-6.007
				c-12.334,0-22.368,10.035-22.368,22.367c0,9.35,5.773,17.368,13.937,20.705v284.986c-8.165,3.337-13.937,11.355-13.937,20.705
				c0,12.333,10.035,22.367,22.368,22.367h223.829c12.333,0,22.367-10.035,22.367-22.367c0-9.35-5.773-17.368-13.936-20.705V183.942
				C278.847,180.605,284.62,172.587,284.62,163.237z M177.669,30.46v9.535c-2.194-2.191-5.222-3.545-8.568-3.545
				c-6.701,0-12.131,5.431-12.131,12.131s5.43,12.131,12.131,12.131c3.345,0,6.373-1.354,8.568-3.545v19.268
				c-8.812-2.1-17.967-3.214-27.332-3.214c-9.365,0-18.521,1.114-27.332,3.214V30.46H177.669z M150.338,90.08
				c36.549,0,69.45,19.573,86.989,50.79H63.351C80.89,109.654,113.789,90.08,150.338,90.08z M262.252,495.139H38.423
				c-3.036,0-5.507-2.47-5.507-5.506s2.471-5.506,5.507-5.506h223.829c3.036,0,5.506,2.47,5.506,5.506
				S265.289,495.139,262.252,495.139z M46.854,467.266V185.604h206.968v281.662H46.854z M262.252,168.743H38.423
				c-3.036,0-5.507-2.47-5.507-5.506c0-3.036,2.471-5.506,5.507-5.506h223.829c3.036,0,5.506,2.47,5.506,5.506
				C267.758,166.273,265.289,168.743,262.252,168.743z"/>
			<path d="M149.772,362.681c-2.809-3.716-8.125-4.487-11.836-1.68c-3.715,2.808-4.477,8.056-1.669,11.771
				c1.053,1.623,3.83,10.854,0.029,19.001c-3.507,7.518-11.785,12.129-24.607,13.708c-4.621,0.569-7.906,4.776-7.336,9.397
				c0.526,4.271,4.16,7.401,8.356,7.401c0.344,0,0.691-0.021,1.042-0.065c24.397-3.005,34.32-14.977,38.349-24.491
				c3.318-7.839,3.295-15.474,2.689-20.497C154.08,371.337,152.204,365.899,149.772,362.681z"/>
			<path d="M135.052,351.303c7.213-12.067,8.641-25.142,4.019-36.818c-2.95-7.449-5.784-12.083-8.525-16.562
				c-1.897-3.1-3.858-6.304-5.988-10.688c-6.216-12.785-3.492-22.183-0.112-27.817c4.577-7.63,13.258-12.966,21.601-13.279
				c4.654-0.174,8.283-4.088,8.11-8.74c-0.17-4.546-3.908-8.116-8.419-8.116c-0.107,0-0.214,0.002-0.32,0.006
				c-14.018,0.525-27.925,8.945-35.431,21.453c-7.808,13.014-8.019,28.594-0.592,43.864c2.486,5.116,4.762,8.833,6.768,12.114
				c2.585,4.224,4.817,7.873,7.231,13.97c3.576,9.031-0.228,17.634-2.814,21.96c-4.946,8.274-13.392,14.635-20.54,15.472
				c-4.624,0.54-7.936,4.727-7.395,9.351c0.501,4.294,4.143,7.455,8.362,7.455c0.327,0,0.658-0.02,0.989-0.058
				C114.383,373.424,127.36,364.173,135.052,351.303z"/>
			<path d="M165.758,314.807c4.03-2.331,5.407-7.49,3.073-11.519c-6.47-11.18-7.782-20.566-3.899-27.896
				c4.189-7.909,13.166-11.263,15.151-11.431c4.624-0.037,8.362-3.797,8.362-8.43c0-4.657-3.773-8.431-8.43-8.431
				c-4.034,0-9.502,1.783-14.629,4.767c-4.374,2.548-10.479,7.131-14.731,14.505c-5.162,8.952-8.728,24.086,3.584,45.362
				c1.564,2.7,4.394,4.208,7.304,4.208C162.976,315.943,164.428,315.577,165.758,314.807z"/>
		</g>
	</g>
</g>
</svg>